<mxfile host="app.diagrams.net" modified="2024-02-18T16:40:59.222Z" agent="Mozilla/5.0 (Windows NT 10.0; Win64; x64) AppleWebKit/537.36 (KHTML, like Gecko) Chrome/120.0.0.0 Safari/537.36 OPR/106.0.0.0" etag="eELFhUB8idtAXHx2d_NY" version="23.1.5" type="github">
  <diagram name="Страница — 1" id="rn4rAT6meQ1mU-28Iixb">
    <mxGraphModel dx="961" dy="528" grid="1" gridSize="10" guides="1" tooltips="1" connect="1" arrows="1" fold="1" page="1" pageScale="1" pageWidth="827" pageHeight="1169" math="0" shadow="0">
      <root>
        <mxCell id="0" />
        <mxCell id="1" parent="0" />
        <mxCell id="8TXubYNOIrG0-aDZzjOa-1" value="Пользователь" style="ellipse;whiteSpace=wrap;html=1;fillColor=#0050ef;fontColor=#ffffff;strokeColor=#001DBC;fontSize=10;" vertex="1" parent="1">
          <mxGeometry x="60" y="220" width="100" height="60" as="geometry" />
        </mxCell>
        <mxCell id="8TXubYNOIrG0-aDZzjOa-17" value="" style="edgeStyle=orthogonalEdgeStyle;rounded=0;orthogonalLoop=1;jettySize=auto;html=1;fontSize=10;" edge="1" parent="1" source="8TXubYNOIrG0-aDZzjOa-2" target="8TXubYNOIrG0-aDZzjOa-16">
          <mxGeometry relative="1" as="geometry">
            <Array as="points">
              <mxPoint x="480" y="250" />
              <mxPoint x="480" y="250" />
            </Array>
          </mxGeometry>
        </mxCell>
        <mxCell id="8TXubYNOIrG0-aDZzjOa-40" value="" style="edgeStyle=orthogonalEdgeStyle;rounded=0;orthogonalLoop=1;jettySize=auto;html=1;startArrow=classic;startFill=1;" edge="1" parent="1" source="8TXubYNOIrG0-aDZzjOa-2" target="8TXubYNOIrG0-aDZzjOa-12">
          <mxGeometry relative="1" as="geometry" />
        </mxCell>
        <mxCell id="8TXubYNOIrG0-aDZzjOa-2" value="Оркестратор" style="rounded=0;whiteSpace=wrap;html=1;fillColor=#0050ef;fontColor=#ffffff;strokeColor=#001DBC;fontSize=10;" vertex="1" parent="1">
          <mxGeometry x="294" y="220" width="120" height="60" as="geometry" />
        </mxCell>
        <mxCell id="8TXubYNOIrG0-aDZzjOa-6" style="edgeStyle=orthogonalEdgeStyle;rounded=0;orthogonalLoop=1;jettySize=auto;html=1;exitX=1;exitY=0;exitDx=0;exitDy=0;entryX=0.002;entryY=0.148;entryDx=0;entryDy=0;entryPerimeter=0;strokeColor=none;startArrow=classic;startFill=1;endArrow=none;endFill=0;fontSize=10;" edge="1" parent="1" source="8TXubYNOIrG0-aDZzjOa-9" target="8TXubYNOIrG0-aDZzjOa-2">
          <mxGeometry relative="1" as="geometry" />
        </mxCell>
        <mxCell id="8TXubYNOIrG0-aDZzjOa-7" value="requst" style="edgeStyle=orthogonalEdgeStyle;rounded=0;orthogonalLoop=1;jettySize=auto;html=1;entryX=-0.012;entryY=0.862;entryDx=0;entryDy=0;entryPerimeter=0;fontSize=10;" edge="1" parent="1">
          <mxGeometry relative="1" as="geometry">
            <mxPoint x="160" y="261" as="sourcePoint" />
            <mxPoint x="293.99999999999994" y="260.55" as="targetPoint" />
          </mxGeometry>
        </mxCell>
        <mxCell id="8TXubYNOIrG0-aDZzjOa-8" value="response" style="edgeStyle=orthogonalEdgeStyle;rounded=0;orthogonalLoop=1;jettySize=auto;html=1;startArrow=classic;startFill=1;endArrow=none;endFill=0;fontSize=10;" edge="1" parent="1">
          <mxGeometry relative="1" as="geometry">
            <mxPoint x="160" y="240" as="sourcePoint" />
            <mxPoint x="290" y="240" as="targetPoint" />
            <Array as="points">
              <mxPoint x="249.87" y="240.2" />
              <mxPoint x="249.87" y="240.2" />
            </Array>
            <mxPoint as="offset" />
          </mxGeometry>
        </mxCell>
        <mxCell id="8TXubYNOIrG0-aDZzjOa-11" value="" style="edgeStyle=orthogonalEdgeStyle;rounded=0;orthogonalLoop=1;jettySize=auto;html=1;exitX=1;exitY=0;exitDx=0;exitDy=0;entryX=0.002;entryY=0.148;entryDx=0;entryDy=0;entryPerimeter=0;strokeColor=none;startArrow=classic;startFill=1;endArrow=none;endFill=0;fontSize=10;" edge="1" parent="1" source="8TXubYNOIrG0-aDZzjOa-1" target="8TXubYNOIrG0-aDZzjOa-9">
          <mxGeometry relative="1" as="geometry">
            <mxPoint x="145" y="229" as="sourcePoint" />
            <mxPoint x="294" y="229" as="targetPoint" />
          </mxGeometry>
        </mxCell>
        <mxCell id="8TXubYNOIrG0-aDZzjOa-9" value="REST API" style="text;html=1;align=center;verticalAlign=middle;resizable=0;points=[];autosize=1;strokeColor=none;fillColor=none;fontSize=10;" vertex="1" parent="1">
          <mxGeometry x="190" y="280" width="70" height="30" as="geometry" />
        </mxCell>
        <mxCell id="8TXubYNOIrG0-aDZzjOa-36" style="edgeStyle=orthogonalEdgeStyle;rounded=0;orthogonalLoop=1;jettySize=auto;html=1;exitX=1;exitY=0.5;exitDx=0;exitDy=0;exitPerimeter=0;entryX=0.5;entryY=0;entryDx=0;entryDy=0;startArrow=classic;startFill=1;endArrow=none;endFill=0;" edge="1" parent="1" source="8TXubYNOIrG0-aDZzjOa-12" target="8TXubYNOIrG0-aDZzjOa-22">
          <mxGeometry relative="1" as="geometry" />
        </mxCell>
        <mxCell id="8TXubYNOIrG0-aDZzjOa-12" value="postgresql" style="shape=cylinder3;whiteSpace=wrap;html=1;boundedLbl=1;backgroundOutline=1;size=15;fillColor=#0050ef;fontColor=#ffffff;strokeColor=#FFFFFF;fillStyle=auto;fontSize=10;" vertex="1" parent="1">
          <mxGeometry x="324" y="70" width="60" height="80" as="geometry" />
        </mxCell>
        <mxCell id="8TXubYNOIrG0-aDZzjOa-35" value="" style="edgeStyle=none;rounded=0;orthogonalLoop=1;jettySize=auto;html=1;entryX=0;entryY=0.5;entryDx=0;entryDy=0;" edge="1" parent="1" source="8TXubYNOIrG0-aDZzjOa-16" target="8TXubYNOIrG0-aDZzjOa-22">
          <mxGeometry relative="1" as="geometry" />
        </mxCell>
        <mxCell id="8TXubYNOIrG0-aDZzjOa-16" value="redis" style="shape=cylinder3;whiteSpace=wrap;html=1;boundedLbl=1;backgroundOutline=1;size=15;fillColor=#0050ef;fontColor=#ffffff;strokeColor=#FFFFFF;fontSize=10;" vertex="1" parent="1">
          <mxGeometry x="470" y="225" width="80" height="50" as="geometry" />
        </mxCell>
        <mxCell id="8TXubYNOIrG0-aDZzjOa-18" value="Очередь" style="text;html=1;align=center;verticalAlign=middle;resizable=0;points=[];autosize=1;strokeColor=none;fillColor=none;fontSize=10;" vertex="1" parent="1">
          <mxGeometry x="480" y="280" width="60" height="30" as="geometry" />
        </mxCell>
        <mxCell id="8TXubYNOIrG0-aDZzjOa-22" value="" style="swimlane;startSize=0;fontSize=10;strokeColor=default;fillColor=default;" vertex="1" parent="1">
          <mxGeometry x="600" y="155" width="200" height="190" as="geometry">
            <mxRectangle x="590" y="140" width="50" height="40" as="alternateBounds" />
          </mxGeometry>
        </mxCell>
        <mxCell id="8TXubYNOIrG0-aDZzjOa-32" value="" style="edgeStyle=orthogonalEdgeStyle;rounded=0;orthogonalLoop=1;jettySize=auto;html=1;" edge="1" parent="8TXubYNOIrG0-aDZzjOa-22" source="8TXubYNOIrG0-aDZzjOa-20" target="8TXubYNOIrG0-aDZzjOa-31">
          <mxGeometry relative="1" as="geometry" />
        </mxCell>
        <mxCell id="8TXubYNOIrG0-aDZzjOa-20" value="Агент" style="rounded=1;whiteSpace=wrap;html=1;fillColor=#0050ef;strokeColor=#FFFFFF;fontColor=#ffffff;fontSize=10;" vertex="1" parent="8TXubYNOIrG0-aDZzjOa-22">
          <mxGeometry x="40" y="120" width="120" height="60" as="geometry" />
        </mxCell>
        <mxCell id="8TXubYNOIrG0-aDZzjOa-24" value="" style="swimlane;startSize=0;fontSize=10;" vertex="1" parent="8TXubYNOIrG0-aDZzjOa-22">
          <mxGeometry x="10" y="10" width="180" height="60" as="geometry" />
        </mxCell>
        <mxCell id="8TXubYNOIrG0-aDZzjOa-29" value="вычислитель" style="rounded=1;whiteSpace=wrap;html=1;fillColor=#0050ef;fontColor=#ffffff;strokeColor=#001DBC;fontSize=7;" vertex="1" parent="8TXubYNOIrG0-aDZzjOa-24">
          <mxGeometry x="125" y="7.5" width="50" height="45" as="geometry" />
        </mxCell>
        <mxCell id="8TXubYNOIrG0-aDZzjOa-30" value="вычислитель" style="rounded=1;whiteSpace=wrap;html=1;fillColor=#0050ef;fontColor=#ffffff;strokeColor=#001DBC;fontSize=7;" vertex="1" parent="8TXubYNOIrG0-aDZzjOa-24">
          <mxGeometry x="65" y="7.5" width="50" height="45" as="geometry" />
        </mxCell>
        <mxCell id="8TXubYNOIrG0-aDZzjOa-31" value="вычислитель" style="rounded=1;whiteSpace=wrap;html=1;fillColor=#0050ef;fontColor=#ffffff;strokeColor=#001DBC;fontSize=7;" vertex="1" parent="8TXubYNOIrG0-aDZzjOa-24">
          <mxGeometry x="5" y="7.5" width="50" height="45" as="geometry" />
        </mxCell>
        <mxCell id="8TXubYNOIrG0-aDZzjOa-33" value="" style="edgeStyle=orthogonalEdgeStyle;rounded=0;orthogonalLoop=1;jettySize=auto;html=1;endArrow=none;endFill=0;startArrow=classic;startFill=1;fontSize=9;" edge="1" parent="8TXubYNOIrG0-aDZzjOa-22" source="8TXubYNOIrG0-aDZzjOa-29" target="8TXubYNOIrG0-aDZzjOa-20">
          <mxGeometry relative="1" as="geometry" />
        </mxCell>
        <mxCell id="8TXubYNOIrG0-aDZzjOa-34" value="горутины" style="edgeStyle=none;rounded=0;orthogonalLoop=1;jettySize=auto;html=1;endArrow=none;endFill=0;startArrow=classic;startFill=1;fontSize=12;" edge="1" parent="8TXubYNOIrG0-aDZzjOa-22" source="8TXubYNOIrG0-aDZzjOa-30" target="8TXubYNOIrG0-aDZzjOa-20">
          <mxGeometry relative="1" as="geometry" />
        </mxCell>
        <mxCell id="8TXubYNOIrG0-aDZzjOa-39" value="БД" style="text;html=1;align=center;verticalAlign=middle;resizable=0;points=[];autosize=1;strokeColor=none;fillColor=none;" vertex="1" parent="1">
          <mxGeometry x="334" y="40" width="40" height="30" as="geometry" />
        </mxCell>
        <mxCell id="8TXubYNOIrG0-aDZzjOa-42" value="Nextjs" style="text;html=1;align=center;verticalAlign=middle;resizable=0;points=[];autosize=1;strokeColor=none;fillColor=none;" vertex="1" parent="1">
          <mxGeometry x="80" y="280" width="60" height="30" as="geometry" />
        </mxCell>
      </root>
    </mxGraphModel>
  </diagram>
</mxfile>
